<?xml version="1.0" encoding="UTF-8" standalone="no"?>
<svg width="64" height="64" viewBox="0 0 64 64" fill="none" xmlns="http://www.w3.org/2000/svg">
    <path
        d="M16.08 28.25H6.19995C5.93473 28.25 5.68038 28.3554 5.49284 28.5429C5.30531 28.7304 5.19995 28.9848 5.19995 29.25V55.5C5.19995 56.9587 5.77941 58.3576 6.81086 59.3891C7.84231 60.4205 9.24126 61 10.7 61H16.08C16.3452 61 16.5995 60.8946 16.7871 60.7071C16.9746 60.5196 17.08 60.2652 17.08 60V29.25C17.08 28.9848 16.9746 28.7304 16.7871 28.5429C16.5995 28.3554 16.3452 28.25 16.08 28.25Z"
        fill="#ACB3BA" />
    <path
        d="M57.7998 3H16.0798C15.8146 3 15.5603 3.10536 15.3727 3.29289C15.1852 3.48043 15.0798 3.73478 15.0798 4V60C15.0798 60.2652 15.1852 60.5196 15.3727 60.7071C15.5603 60.8946 15.8146 61 16.0798 61H53.2998C54.7585 61 56.1575 60.4205 57.1889 59.3891C58.2204 58.3576 58.7998 56.9587 58.7998 55.5V4C58.7998 3.73478 58.6945 3.48043 58.5069 3.29289C58.3194 3.10536 58.0651 3 57.7998 3V3Z"
        fill="#E6E6E6" />
    <path
        d="M22.2 34.79H52C52.2652 34.79 52.5195 34.6846 52.7071 34.4971C52.8946 34.3095 53 34.0552 53 33.79C53 33.5248 52.8946 33.2704 52.7071 33.0829C52.5195 32.8953 52.2652 32.79 52 32.79H22.2C21.9347 32.79 21.6804 32.8953 21.4928 33.0829C21.3053 33.2704 21.2 33.5248 21.2 33.79C21.2 34.0552 21.3053 34.3095 21.4928 34.4971C21.6804 34.6846 21.9347 34.79 22.2 34.79Z"
        fill="#ACB3BA" />
    <path
        d="M52 39.39H22.2C21.9347 39.39 21.6804 39.4954 21.4928 39.6829C21.3053 39.8704 21.2 40.1248 21.2 40.39C21.2 40.6552 21.3053 40.9096 21.4928 41.0971C21.6804 41.2847 21.9347 41.39 22.2 41.39H52C52.2652 41.39 52.5195 41.2847 52.7071 41.0971C52.8946 40.9096 53 40.6552 53 40.39C53 40.1248 52.8946 39.8704 52.7071 39.6829C52.5195 39.4954 52.2652 39.39 52 39.39Z"
        fill="#ACB3BA" />
    <path
        d="M52 46H22.2C21.9347 46 21.6804 46.1054 21.4928 46.2929C21.3053 46.4804 21.2 46.7348 21.2 47C21.2 47.2652 21.3053 47.5196 21.4928 47.7071C21.6804 47.8946 21.9347 48 22.2 48H52C52.2652 48 52.5195 47.8946 52.7071 47.7071C52.8946 47.5196 53 47.2652 53 47C53 46.7348 52.8946 46.4804 52.7071 46.2929C52.5195 46.1054 52.2652 46 52 46Z"
        fill="#ACB3BA" />
    <path
        d="M52 52.61H39.76C39.4948 52.61 39.2404 52.7153 39.0529 52.9029C38.8654 53.0904 38.76 53.3448 38.76 53.61C38.76 53.8752 38.8654 54.1296 39.0529 54.3171C39.2404 54.5046 39.4948 54.61 39.76 54.61H52C52.2652 54.61 52.5196 54.5046 52.7071 54.3171C52.8947 54.1296 53 53.8752 53 53.61C53 53.3448 52.8947 53.0904 52.7071 52.9029C52.5196 52.7153 52.2652 52.61 52 52.61Z"
        fill="#ACB3BA" />
    <path
        d="M47.4099 26.77L45.3399 16.38C45.2108 15.7143 44.8555 15.1138 44.3343 14.68C43.8131 14.2463 43.158 14.006 42.4799 14H31.3999C30.7282 14.0027 30.078 14.2369 29.5588 14.6632C29.0397 15.0895 28.6833 15.6817 28.5499 16.34L26.4699 26.77C26.3858 27.1927 26.396 27.6287 26.4997 28.047C26.6034 28.4653 26.7981 28.8556 27.0699 29.19C27.3429 29.5225 27.6864 29.7901 28.0755 29.9735C28.4647 30.1568 28.8898 30.2513 29.3199 30.25H44.5599C44.9901 30.2513 45.4152 30.1568 45.8043 29.9735C46.1935 29.7901 46.537 29.5225 46.8099 29.19C47.0861 28.8581 47.2836 28.4679 47.3875 28.0488C47.4914 27.6297 47.4991 27.1925 47.4099 26.77Z"
        fill="#F0454E" />
    <path
        d="M41.2599 18.46C40.9947 18.46 40.7403 18.3547 40.5528 18.1671C40.3652 17.9796 40.2599 17.7252 40.2599 17.46V13.4C40.2599 12.964 40.174 12.5323 40.0072 12.1295C39.8403 11.7267 39.5958 11.3607 39.2875 11.0524C38.9792 10.7441 38.6132 10.4996 38.2104 10.3327C37.8076 10.1659 37.3759 10.08 36.9399 10.08C36.5039 10.08 36.0722 10.1659 35.6694 10.3327C35.2666 10.4996 34.9006 10.7441 34.5923 11.0524C34.284 11.3607 34.0394 11.7267 33.8726 12.1295C33.7057 12.5323 33.6199 12.964 33.6199 13.4V17.46C33.6199 17.7252 33.5145 17.9796 33.327 18.1671C33.1394 18.3547 32.8851 18.46 32.6199 18.46C32.3547 18.46 32.1003 18.3547 31.9128 18.1671C31.7252 17.9796 31.6199 17.7252 31.6199 17.46V13.4C31.6199 11.9891 32.1804 10.6359 33.1781 9.63821C34.1758 8.64052 35.5289 8.08002 36.9399 8.08002C38.3508 8.08002 39.704 8.64052 40.7017 9.63821C41.6994 10.6359 42.2599 11.9891 42.2599 13.4V17.46C42.2599 17.7252 42.1545 17.9796 41.967 18.1671C41.7794 18.3547 41.5251 18.46 41.2599 18.46Z"
        fill="#ACB3BA" />
</svg>
